<svg width="135" height="42" viewBox="0 0 135 42" fill="none" xmlns="http://www.w3.org/2000/svg">
<rect width="41.9999" height="42" fill="white"/>
<path d="M28.9441 16.9264C28.9568 17.104 28.9568 17.2817 28.9568 17.4594C28.9568 22.8781 24.8325 29.1218 17.2944 29.1218C14.9721 29.1218 12.8147 28.4492 11 27.2817C11.33 27.3198 11.6472 27.3325 11.9898 27.3325C13.9061 27.3325 15.67 26.6853 17.0787 25.5812C15.2766 25.5431 13.7665 24.3629 13.2462 22.7386C13.5 22.7766 13.7538 22.802 14.0203 22.802C14.3883 22.802 14.7564 22.7512 15.099 22.6624C13.2208 22.2817 11.8121 20.632 11.8121 18.6396V18.5888C12.3578 18.8934 12.9924 19.0838 13.6649 19.1091C12.5609 18.3731 11.8375 17.1167 11.8375 15.6954C11.8375 14.934 12.0405 14.236 12.3959 13.6269C14.4137 16.1142 17.4467 17.7385 20.8477 17.9162C20.7842 17.6117 20.7461 17.2944 20.7461 16.9772C20.7461 14.7183 22.5736 12.8782 24.8451 12.8782C26.0253 12.8782 27.0913 13.3731 27.84 14.1726C28.7664 13.9949 29.6547 13.6523 30.4416 13.1827C30.137 14.1345 29.4898 14.934 28.6395 15.4416C29.4644 15.3528 30.2639 15.1243 30.9999 14.8071C30.4416 15.6193 29.7436 16.3426 28.9441 16.9264Z" fill="#18B5DC"/>
<rect width="42" height="42" transform="translate(46)" fill="white"/>
<path d="M71.6539 22.25L72.2094 18.6305H68.7364V16.2816C68.7364 15.2914 69.2215 14.3262 70.777 14.3262H72.3559V11.2445C72.3559 11.2445 70.9231 11 69.5531 11C66.693 11 64.8235 12.7336 64.8235 15.8719V18.6305H61.6442V22.25H64.8235V31H68.7364V22.25H71.6539Z" fill="#18B5DC"/>
<rect width="42.0045" height="42" transform="translate(92)" fill="white"/>
<path d="M113.004 15.8723C110.166 15.8723 107.877 18.1617 107.877 21C107.877 23.8383 110.166 26.1277 113.004 26.1277C115.843 26.1277 118.132 23.8383 118.132 21C118.132 18.1617 115.843 15.8723 113.004 15.8723ZM113.004 24.3337C111.17 24.3337 109.671 22.8387 109.671 21C109.671 19.1613 111.166 17.6663 113.004 17.6663C114.843 17.6663 116.338 19.1613 116.338 21C116.338 22.8387 114.839 24.3337 113.004 24.3337ZM119.538 15.6625C119.538 16.3275 119.002 16.8585 118.342 16.8585C117.677 16.8585 117.146 16.323 117.146 15.6625C117.146 15.002 117.681 14.4665 118.342 14.4665C119.002 14.4665 119.538 15.002 119.538 15.6625ZM122.934 16.8764C122.858 15.2742 122.492 13.8551 121.319 12.6858C120.149 11.5166 118.73 11.1506 117.128 11.0703C115.477 10.9766 110.528 10.9766 108.876 11.0703C107.279 11.1462 105.86 11.5121 104.686 12.6814C103.512 13.8506 103.151 15.2698 103.07 16.8719C102.977 18.5232 102.977 23.4724 103.07 25.1236C103.146 26.7258 103.512 28.1449 104.686 29.3142C105.86 30.4834 107.274 30.8494 108.876 30.9297C110.528 31.0234 115.477 31.0234 117.128 30.9297C118.73 30.8538 120.149 30.4879 121.319 29.3142C122.488 28.1449 122.854 26.7258 122.934 25.1236C123.028 23.4724 123.028 18.5276 122.934 16.8764ZM120.801 26.8953C120.453 27.7701 119.779 28.4439 118.9 28.7965C117.583 29.3186 114.459 29.1981 113.004 29.1981C111.55 29.1981 108.421 29.3142 107.109 28.7965C106.234 28.4484 105.561 27.7745 105.208 26.8953C104.686 25.5788 104.806 22.4549 104.806 21C104.806 19.5451 104.69 16.4167 105.208 15.1047C105.556 14.2299 106.23 13.5561 107.109 13.2035C108.426 12.6814 111.55 12.8019 113.004 12.8019C114.459 12.8019 117.588 12.6858 118.9 13.2035C119.775 13.5516 120.448 14.2255 120.801 15.1047C121.323 16.4212 121.203 19.5451 121.203 21C121.203 22.4549 121.323 25.5833 120.801 26.8953Z" fill="#18B5DC"/>
</svg>
