<svg xmlns="http://www.w3.org/2000/svg" xmlns:xlink="http://www.w3.org/1999/xlink">
    <symbol id="logo" width="200" height="36" fill="none" xmlns="http://www.w3.org/2000/svg" viewBox="0 0 200 36" >
        <path  d="M48.132 31C47.712 31 47.362 30.86 47.082 30.58C46.8253 30.3 46.697 29.9617 46.697 29.565V7.9C46.697 7.50333 46.8253 7.17667 47.082 6.92C47.362 6.64 47.7003 6.5 48.097 6.5H60.382C60.7787 6.5 61.117 6.62833 61.397 6.885C61.677 7.14167 61.817 7.46833 61.817 7.865C61.817 8.23833 61.677 8.55333 61.397 8.81C61.117 9.06667 60.7787 9.195 60.382 9.195H49.357L49.567 8.915V17.49L49.392 17.105H58.807C59.2037 17.105 59.542 17.245 59.822 17.525C60.102 17.7817 60.242 18.1083 60.242 18.505C60.242 18.855 60.102 19.17 59.822 19.45C59.542 19.7067 59.2037 19.835 58.807 19.835H49.322L49.567 19.52V29.565C49.567 29.9617 49.427 30.3 49.147 30.58C48.867 30.86 48.5287 31 48.132 31ZM67.0894 31C66.6928 31 66.3544 30.86 66.0744 30.58C65.8178 30.3 65.6894 29.9617 65.6894 29.565V14.305C65.6894 13.9083 65.8178 13.5817 66.0744 13.325C66.3544 13.045 66.6928 12.905 67.0894 12.905C67.5094 12.905 67.8478 13.045 68.1044 13.325C68.3611 13.5817 68.4894 13.9083 68.4894 14.305V18.925L68.0694 18.19C68.2094 17.4667 68.4544 16.7667 68.8044 16.09C69.1778 15.39 69.6444 14.7717 70.2044 14.235C70.7644 13.675 71.4061 13.2433 72.1294 12.94C72.8528 12.6133 73.6461 12.45 74.5094 12.45C75.0228 12.45 75.4894 12.5783 75.9094 12.835C76.3528 13.0683 76.5744 13.4067 76.5744 13.85C76.5744 14.34 76.4461 14.7017 76.1894 14.935C75.9328 15.1683 75.6411 15.285 75.3144 15.285C75.0111 15.285 74.7194 15.2267 74.4394 15.11C74.1594 14.97 73.8094 14.9 73.3894 14.9C72.8061 14.9 72.2228 15.0633 71.6394 15.39C71.0794 15.6933 70.5544 16.1367 70.0644 16.72C69.5978 17.3033 69.2128 17.9683 68.9094 18.715C68.6294 19.4383 68.4894 20.22 68.4894 21.06V29.565C68.4894 29.9617 68.3494 30.3 68.0694 30.58C67.8128 30.86 67.4861 31 67.0894 31ZM87.3161 31.35C85.4495 31.35 83.8161 30.9533 82.4161 30.16C81.0161 29.3667 79.9195 28.2817 79.1261 26.905C78.3561 25.505 77.9711 23.895 77.9711 22.075C77.9711 20.045 78.3678 18.3183 79.1611 16.895C79.9778 15.4483 81.0278 14.3517 82.3111 13.605C83.6178 12.835 84.9945 12.45 86.4411 12.45C87.5145 12.45 88.5528 12.6483 89.5561 13.045C90.5595 13.4417 91.4461 14.025 92.2161 14.795C92.9861 15.5417 93.6045 16.4517 94.0711 17.525C94.5378 18.575 94.7828 19.7533 94.8061 21.06C94.8061 21.4333 94.6661 21.7483 94.3861 22.005C94.1061 22.2617 93.7795 22.39 93.4061 22.39H79.5811L78.9511 19.975H92.4261L91.8661 20.465V19.695C91.7728 18.7383 91.4461 17.9217 90.8861 17.245C90.3495 16.545 89.6845 16.0083 88.8911 15.635C88.1211 15.2617 87.3045 15.075 86.4411 15.075C85.7411 15.075 85.0411 15.2033 84.3411 15.46C83.6645 15.6933 83.0461 16.09 82.4861 16.65C81.9495 17.1867 81.5061 17.8867 81.1561 18.75C80.8295 19.6133 80.6661 20.6517 80.6661 21.865C80.6661 23.2183 80.9345 24.4083 81.4711 25.435C82.0311 26.4617 82.8011 27.2783 83.7811 27.885C84.7611 28.4683 85.9045 28.76 87.2111 28.76C88.0278 28.76 88.7395 28.655 89.3461 28.445C89.9528 28.235 90.4778 27.9783 90.9211 27.675C91.3645 27.3483 91.7378 27.0217 92.0411 26.695C92.3445 26.485 92.6361 26.38 92.9161 26.38C93.2661 26.38 93.5461 26.4967 93.7561 26.73C93.9895 26.9633 94.1061 27.2433 94.1061 27.57C94.1061 27.9667 93.9195 28.3167 93.5461 28.62C92.8928 29.3433 92.0061 29.985 90.8861 30.545C89.7661 31.0817 88.5761 31.35 87.3161 31.35ZM107.38 31.35C105.513 31.35 103.88 30.9533 102.48 30.16C101.08 29.3667 99.983 28.2817 99.1896 26.905C98.4196 25.505 98.0346 23.895 98.0346 22.075C98.0346 20.045 98.4313 18.3183 99.2246 16.895C100.041 15.4483 101.091 14.3517 102.375 13.605C103.681 12.835 105.058 12.45 106.505 12.45C107.578 12.45 108.616 12.6483 109.62 13.045C110.623 13.4417 111.51 14.025 112.28 14.795C113.05 15.5417 113.668 16.4517 114.135 17.525C114.601 18.575 114.846 19.7533 114.87 21.06C114.87 21.4333 114.73 21.7483 114.45 22.005C114.17 22.2617 113.843 22.39 113.47 22.39H99.6446L99.0146 19.975H112.49L111.93 20.465V19.695C111.836 18.7383 111.51 17.9217 110.95 17.245C110.413 16.545 109.748 16.0083 108.955 15.635C108.185 15.2617 107.368 15.075 106.505 15.075C105.805 15.075 105.105 15.2033 104.405 15.46C103.728 15.6933 103.11 16.09 102.55 16.65C102.013 17.1867 101.57 17.8867 101.22 18.75C100.893 19.6133 100.73 20.6517 100.73 21.865C100.73 23.2183 100.998 24.4083 101.535 25.435C102.095 26.4617 102.865 27.2783 103.845 27.885C104.825 28.4683 105.968 28.76 107.275 28.76C108.091 28.76 108.803 28.655 109.41 28.445C110.016 28.235 110.541 27.9783 110.985 27.675C111.428 27.3483 111.801 27.0217 112.105 26.695C112.408 26.485 112.7 26.38 112.98 26.38C113.33 26.38 113.61 26.4967 113.82 26.73C114.053 26.9633 114.17 27.2433 114.17 27.57C114.17 27.9667 113.983 28.3167 113.61 28.62C112.956 29.3433 112.07 29.985 110.95 30.545C109.83 31.0817 108.64 31.35 107.38 31.35ZM127.828 12.625C129.368 12.625 130.581 12.9633 131.468 13.64C132.378 14.2933 133.02 15.18 133.393 16.3C133.79 17.3967 133.988 18.6217 133.988 19.975V29.565C133.988 29.9617 133.848 30.3 133.568 30.58C133.311 30.86 132.985 31 132.588 31C132.191 31 131.853 30.86 131.573 30.58C131.316 30.3 131.188 29.9617 131.188 29.565V19.975C131.188 19.0883 131.06 18.295 130.803 17.595C130.546 16.8717 130.115 16.3 129.508 15.88C128.925 15.4367 128.12 15.215 127.093 15.215C126.136 15.215 125.261 15.4367 124.468 15.88C123.675 16.3 123.045 16.8717 122.578 17.595C122.111 18.295 121.878 19.0883 121.878 19.975V29.565C121.878 29.9617 121.738 30.3 121.458 30.58C121.201 30.86 120.875 31 120.478 31C120.081 31 119.743 30.86 119.463 30.58C119.206 30.3 119.078 29.9617 119.078 29.565V6.5C119.078 6.10333 119.206 5.77667 119.463 5.52C119.743 5.24 120.081 5.1 120.478 5.1C120.898 5.1 121.236 5.24 121.493 5.52C121.75 5.77667 121.878 6.10333 121.878 6.5V16.965L121.178 17.735C121.295 17.1283 121.551 16.5217 121.948 15.915C122.345 15.285 122.846 14.725 123.453 14.235C124.06 13.745 124.736 13.36 125.483 13.08C126.23 12.7767 127.011 12.625 127.828 12.625ZM154.086 12.73C154.482 12.73 154.809 12.87 155.066 13.15C155.346 13.4067 155.486 13.7333 155.486 14.13V29.565C155.486 29.9617 155.346 30.3 155.066 30.58C154.809 30.86 154.482 31 154.086 31C153.666 31 153.327 30.86 153.071 30.58C152.814 30.3 152.686 29.9617 152.686 29.565V26.24L153.351 26.17C153.351 26.6833 153.176 27.2433 152.826 27.85C152.476 28.4567 151.997 29.0283 151.391 29.565C150.784 30.0783 150.061 30.51 149.221 30.86C148.404 31.1867 147.517 31.35 146.561 31.35C144.974 31.35 143.551 30.9417 142.291 30.125C141.031 29.285 140.027 28.1533 139.281 26.73C138.557 25.3067 138.196 23.685 138.196 21.865C138.196 20.0217 138.557 18.4 139.281 17C140.027 15.5767 141.031 14.4683 142.291 13.675C143.551 12.8583 144.951 12.45 146.491 12.45C147.494 12.45 148.427 12.6133 149.291 12.94C150.154 13.2667 150.901 13.71 151.531 14.27C152.184 14.83 152.686 15.4483 153.036 16.125C153.409 16.8017 153.596 17.4783 153.596 18.155L152.686 17.945V14.13C152.686 13.7333 152.814 13.4067 153.071 13.15C153.327 12.87 153.666 12.73 154.086 12.73ZM146.876 28.76C148.042 28.76 149.069 28.4567 149.956 27.85C150.866 27.2433 151.566 26.4267 152.056 25.4C152.569 24.35 152.826 23.1717 152.826 21.865C152.826 20.5817 152.569 19.4267 152.056 18.4C151.566 17.35 150.866 16.5333 149.956 15.95C149.069 15.3433 148.042 15.04 146.876 15.04C145.732 15.04 144.706 15.3317 143.796 15.915C142.909 16.4983 142.209 17.3033 141.696 18.33C141.182 19.3567 140.926 20.535 140.926 21.865C140.926 23.1717 141.171 24.35 141.661 25.4C142.174 26.4267 142.874 27.2433 143.761 27.85C144.671 28.4567 145.709 28.76 146.876 28.76ZM169.67 12.45C171.256 12.45 172.505 12.7767 173.415 13.43C174.325 14.0833 174.966 14.9583 175.34 16.055C175.736 17.1517 175.935 18.3767 175.935 19.73V29.565C175.935 29.9617 175.795 30.3 175.515 30.58C175.258 30.86 174.931 31 174.535 31C174.138 31 173.8 30.86 173.52 30.58C173.263 30.3 173.135 29.9617 173.135 29.565V19.8C173.135 18.9133 172.995 18.12 172.715 17.42C172.458 16.6967 172.015 16.125 171.385 15.705C170.778 15.2617 169.938 15.04 168.865 15.04C167.885 15.04 166.986 15.2617 166.17 15.705C165.353 16.125 164.7 16.6967 164.21 17.42C163.72 18.12 163.475 18.9133 163.475 19.8V29.565C163.475 29.9617 163.335 30.3 163.055 30.58C162.798 30.86 162.471 31 162.075 31C161.678 31 161.34 30.86 161.06 30.58C160.803 30.3 160.675 29.9617 160.675 29.565V14.305C160.675 13.9083 160.803 13.5817 161.06 13.325C161.34 13.045 161.678 12.905 162.075 12.905C162.495 12.905 162.833 13.045 163.09 13.325C163.346 13.5817 163.475 13.9083 163.475 14.305V16.79L162.775 17.56C162.891 16.9533 163.16 16.3467 163.58 15.74C164 15.11 164.525 14.55 165.155 14.06C165.785 13.57 166.485 13.185 167.255 12.905C168.025 12.6017 168.83 12.45 169.67 12.45ZM196.024 5.1C196.421 5.1 196.748 5.24 197.004 5.52C197.284 5.77667 197.424 6.10333 197.424 6.5V29.565C197.424 29.9617 197.284 30.3 197.004 30.58C196.748 30.86 196.421 31 196.024 31C195.604 31 195.266 30.86 195.009 30.58C194.753 30.3 194.624 29.9617 194.624 29.565V26.24L195.289 25.995C195.289 26.555 195.114 27.15 194.764 27.78C194.414 28.3867 193.936 28.9583 193.329 29.495C192.723 30.0317 191.999 30.475 191.159 30.825C190.343 31.175 189.456 31.35 188.499 31.35C186.936 31.35 185.513 30.9417 184.229 30.125C182.969 29.3083 181.966 28.1883 181.219 26.765C180.496 25.3417 180.134 23.72 180.134 21.9C180.134 20.0567 180.496 18.4233 181.219 17C181.966 15.5767 182.969 14.4683 184.229 13.675C185.489 12.8583 186.889 12.45 188.429 12.45C189.409 12.45 190.331 12.6133 191.194 12.94C192.058 13.2667 192.804 13.71 193.434 14.27C194.088 14.83 194.601 15.4483 194.974 16.125C195.348 16.8017 195.534 17.4783 195.534 18.155L194.624 17.945V6.5C194.624 6.10333 194.753 5.77667 195.009 5.52C195.266 5.24 195.604 5.1 196.024 5.1ZM188.814 28.76C189.981 28.76 191.008 28.4683 191.894 27.885C192.804 27.2783 193.504 26.4617 193.994 25.435C194.508 24.385 194.764 23.2067 194.764 21.9C194.764 20.57 194.508 19.3917 193.994 18.365C193.504 17.3383 192.804 16.5333 191.894 15.95C191.008 15.3433 189.981 15.04 188.814 15.04C187.671 15.04 186.644 15.3433 185.734 15.95C184.848 16.5333 184.148 17.3383 183.634 18.365C183.121 19.3917 182.864 20.57 182.864 21.9C182.864 23.1833 183.121 24.35 183.634 25.4C184.148 26.4267 184.848 27.2433 185.734 27.85C186.644 28.4567 187.671 28.76 188.814 28.76Z" fill="#16133D"/>
        <path d="M24.1011 18C24.1011 17.5945 24.3801 17.2398 24.7776 17.1478C27.7445 16.4559 29.8158 13.8427 29.8158 10.7871C29.8158 7.18162 26.89 4.25 23.2975 4.25C20.2319 4.25 17.5476 6.43303 16.9194 9.43851L24.1011 18ZM24.1011 18C24.1011 18.4052 24.3798 18.7598 24.7769 18.8521L24.1011 18ZM16.9194 26.5615C17.5476 29.567 20.2319 31.75 23.2975 31.75C26.89 31.75 29.8158 28.8184 29.8158 25.2129C29.8158 22.1573 27.7445 19.5441 24.7776 18.8522L16.9194 26.5615ZM16.9194 26.5615C16.8351 26.1567 16.4785 25.8654 16.0639 25.8654C15.6494 25.8654 15.2928 26.1567 15.2085 26.5615C14.5801 29.567 11.8957 31.75 8.83015 31.75C5.23764 31.75 2.31186 28.8184 2.31186 25.2129C2.31186 22.1573 4.38316 19.5441 7.35008 18.8522C7.74759 18.7602 8.0266 18.4055 8.0266 18C8.0266 17.5948 7.74793 17.2402 7.35082 17.1479L16.9194 26.5615ZM15.2085 9.43851C14.5801 6.43301 11.8957 4.25 8.83015 4.25C5.23764 4.25 2.31186 7.18162 2.31186 10.7871C2.31186 13.8427 4.38316 16.4559 7.35008 17.1478L15.2085 9.43851ZM15.2085 9.43851C15.2928 9.84326 15.6494 10.1346 16.0639 10.1346C16.4783 10.1346 16.8349 9.84341 16.9193 9.43882L15.2085 9.43851ZM8.83015 33.5C11.8854 33.5 14.636 31.7954 16.0639 29.2195C17.4916 31.7954 20.2421 33.5 23.2975 33.5C27.8572 33.5 31.5638 29.7816 31.5638 25.2129C31.5638 22.1523 29.9198 19.4359 27.3694 18C29.9198 16.5641 31.5638 13.8477 31.5638 10.7871C31.5638 6.2184 27.8572 2.5 23.2975 2.5C20.2421 2.5 17.4916 4.20458 16.0639 6.7805C14.636 4.20458 11.8854 2.5 8.83015 2.5C4.27048 2.5 0.563843 6.2184 0.563843 10.7871C0.563843 13.8477 2.20788 16.5641 4.75833 18C2.20788 19.4359 0.563843 22.1523 0.563843 25.2129C0.563843 29.7816 4.27048 33.5 8.83015 33.5Z" fill="#3DB370" stroke="#3DB370"/>
    </symbol>
    <symbol id="Vector" width="40" height="36" viewBox="0 0 40 36" fill="none" fill-rule="evenodd" xmlns="http://www.w3.org/2000/svg">
        <path fill-rule="evenodd" d="M32.231 12.5215C34.8236 10.5404 33.928 6.62262 30.6884 5.81066C29.8419 5.5985 28.9656 5.64263 28.1623 5.92889L25.5882 1.75793C24.5407 0.0605986 21.9428 0.0156194 20.8274 1.67053C17.6614 6.36843 13.4435 10.3641 8.43582 13.3962C8.15067 13.5685 8.04496 13.9246 8.21369 14.2144C8.24076 14.2608 12.5045 21.1688 12.5328 21.2145C12.7161 21.5116 13.1222 21.6137 13.4402 21.442C13.7579 21.2704 13.8668 20.8903 13.6834 20.593L9.68499 14.1141C14.4599 11.1279 18.6887 7.17449 21.9514 2.33342C22.5349 1.46747 23.8913 1.49435 24.4375 2.37941L33.6546 17.3144C34.2015 18.2006 33.5458 19.3118 32.4541 19.3516C26.3293 19.5748 20.3328 21.0403 14.8502 23.6636C14.8269 23.6747 8.61087 27.0326 8.1828 27.2638C7.07165 27.864 5.64585 27.5066 5.00445 26.4671L1.6396 21.0146C0.998115 19.9752 1.38018 18.6414 2.49125 18.0412L6.54102 15.8539C6.85873 15.6823 6.9676 15.3022 6.78416 15.0049C6.60073 14.7076 6.19433 14.6059 5.8767 14.7775L1.82694 16.9648C0.0814388 17.9076 -0.518773 20.0031 0.488998 21.6361L3.85394 27.0885C4.86179 28.7216 7.10179 29.2829 8.84729 28.3401L9.0005 28.2574L13.1549 34.989C13.7516 35.9559 15.0711 36.2871 16.1053 35.7286L17.5624 34.9416C18.5962 34.3832 18.9498 33.1487 18.3529 32.1815L15.4086 27.4106C15.2252 27.1134 14.8188 27.0116 14.5011 27.1832C14.1834 27.3548 14.0746 27.7349 14.258 28.0321L17.2023 32.803C17.432 33.1751 17.296 33.6503 16.8981 33.8651L15.441 34.6522C15.0431 34.867 14.5353 34.7397 14.3056 34.3675L10.1512 27.6359L15.4703 24.7629C20.6753 22.275 26.4658 20.8136 32.5059 20.5935C34.5992 20.5171 35.8512 18.3873 34.8052 16.6928L32.231 12.5215ZM32.0412 8.22914C32.6971 9.29186 32.4615 10.6106 31.5536 11.4239L28.8395 7.02596C30.0293 6.69945 31.3748 7.14924 32.0412 8.22914ZM38.5387 5.46613L36.8199 6.39454C36.5019 6.56622 36.0958 6.46422 35.9124 6.16708C35.7289 5.86985 35.8379 5.48974 36.1556 5.31814L37.8744 4.38973C38.1924 4.21805 38.5985 4.32005 38.7819 4.61719C38.9653 4.91441 38.8565 5.29452 38.5387 5.46613ZM31.1467 1.92402L31.5659 0.460752C31.6609 0.129194 32.0249 -0.0674254 32.3796 0.0212904C32.734 0.110162 32.9443 0.450964 32.8493 0.782444L32.4301 2.24571C32.3353 2.57641 31.972 2.77404 31.6164 2.68517C31.2621 2.5963 31.0518 2.25558 31.1467 1.92402ZM39.8353 12.1022C39.7557 12.3798 39.4873 12.5629 39.1939 12.5629C39.0737 12.5629 39.1578 12.5757 37.4574 12.1495C37.103 12.0606 36.8927 11.7199 36.9876 11.3883C37.0826 11.0568 37.4469 10.8602 37.8013 10.9489L39.3655 11.3409C39.7198 11.4298 39.9302 11.7706 39.8353 12.1022Z" fill="#007FFC"/>
    </symbol>
    <symbol id="Vector_1" width="40" height="36" viewBox="0 0 40 36" fill-rule="evenodd" xmlns="http://www.w3.org/2000/svg">
        <path fill-rule="evenodd" d="M37.418 20.325V33C37.418 34.6542 35.9795 36 34.2113 36H5.99165C4.22343 36 2.78487 34.6542 2.78487 33V20.325C2.78487 19.9937 3.07204 19.725 3.42623 19.725C3.78042 19.725 4.06758 19.9937 4.06758 20.325V33C4.06758 33.9925 4.93069 34.8 5.99165 34.8H12.9664V24.675C12.9664 23.0208 14.4049 21.675 16.1732 21.675H24.0297C25.798 21.675 27.2365 23.0208 27.2365 24.675V32.4C27.2365 32.7313 26.9494 33 26.5952 33C26.241 33 25.9538 32.7313 25.9538 32.4V24.675C25.9538 23.6825 25.0906 22.875 24.0297 22.875H16.1732C15.1123 22.875 14.2491 23.6825 14.2491 24.675V34.8H19.4601V25.35C19.4601 25.0187 19.7473 24.75 20.1014 24.75C20.4556 24.75 20.7428 25.0187 20.7428 25.35V34.8H34.2113C35.2721 34.8 36.1353 33.9925 36.1353 33V20.325C36.1353 19.9937 36.4225 19.725 36.7767 19.725C37.1309 19.725 37.418 19.9936 37.418 20.325ZM5.02962 9.6C5.02962 9.93135 5.31678 10.2 5.67097 10.2C40.5661 10.2 38.836 10.2584 39.0909 10.0754C39.2242 9.9795 39.3113 9.84112 39.3352 9.68303C39.3709 9.4419 39.6011 10.0349 35.1204 0.361425C35.0186 0.141975 34.7875 0 34.5318 0H5.67089C5.41531 0 5.18402 0.14205 5.08245 0.361425L0.913642 9.36143C0.839966 9.52058 0.86073 9.26798 0.86073 13.3224C0.86538 16.0513 3.23895 18.2714 6.15191 18.2714C8.15446 18.2714 9.90207 17.2222 10.8004 15.6797C12.8067 19.129 18.0914 19.1328 20.1014 15.682C22.1098 19.13 27.3921 19.1308 29.401 15.682C30.2987 17.2232 32.0464 18.2714 34.0508 18.2714C36.9684 18.2714 39.342 16.0509 39.342 13.3214C39.342 12.9901 39.0548 12.7214 38.7006 12.7214C38.3465 12.7214 38.0593 12.9901 38.0593 13.3214C38.0593 15.3892 36.2611 17.0714 34.0508 17.0714C31.8406 17.0714 30.0424 15.3892 30.0424 13.3214C30.0424 12.9901 29.7552 12.7214 29.401 12.7214C29.0468 12.7214 28.7597 12.9901 28.7597 13.3214C28.7597 15.3892 26.9615 17.0714 24.7512 17.0714C22.5409 17.0714 20.7427 15.3892 20.7427 13.3214C20.7427 12.9901 20.4556 12.7214 20.1014 12.7214C19.7472 12.7214 19.46 12.9901 19.46 13.3214C19.46 15.3892 17.6618 17.0714 15.4515 17.0714C13.2904 17.0714 11.4431 15.4466 11.4431 13.2914C11.4431 12.9601 11.1559 12.6914 10.8017 12.6914C10.4475 12.6914 10.1604 12.9601 10.1604 13.2914C10.1604 15.4284 8.32457 17.0714 6.15191 17.0714C3.94516 17.0714 2.14689 15.3887 2.14344 13.3214V9.72435L6.09202 1.2H34.1109L37.7238 9H5.67097C5.3167 9 5.02962 9.26858 5.02962 9.6Z" fill="#007FFC"/>
    </symbol>
    <symbol id="Vector_2" width="36" height="36" viewBox="0 0 25 36" fill="none" xmlns="http://www.w3.org/2000/svg">
        <path d="M21.1924 0H3.55506C1.78683 0 0.348267 1.3458 0.348267 3V33C0.348267 34.6542 1.78683 36 3.55506 36H21.1924C22.9606 36 24.3992 34.6542 24.3992 33V3C24.3992 1.3458 22.9606 0 21.1924 0ZM21.1924 34.8H3.55506C2.49417 34.8 1.63098 33.9925 1.63098 33V3C1.63098 2.00745 2.49417 1.2 3.55506 1.2H21.1924C22.2533 1.2 23.1165 2.00745 23.1165 3V29.55H4.75761C4.40341 29.55 4.11625 29.8187 4.11625 30.15C4.11625 30.4814 4.40341 30.75 4.75761 30.75H23.1165V33C23.1165 33.9925 22.2533 34.8 21.1924 34.8ZM13.8168 32.625C13.8168 32.9564 13.5296 33.225 13.1754 33.225H11.572C11.2178 33.225 10.9307 32.9564 10.9307 32.625C10.9307 32.2937 11.2178 32.025 11.572 32.025H13.1754C13.5296 32.025 13.8168 32.2937 13.8168 32.625ZM7.48177 23.7H17.2657C18.3626 23.7 19.2174 22.8079 19.0988 21.7883L18.241 14.4176C18.139 13.5407 17.3508 12.8794 16.408 12.8794H15.8142V11.7686C15.8141 9.99383 14.2708 8.55 12.3737 8.55C10.4767 8.55 8.93333 9.99383 8.93333 11.7686V12.8793H8.33959C7.39663 12.8793 6.60865 13.5406 6.50651 14.4176L5.64877 21.7883C5.53004 22.8084 6.38553 23.7 7.48177 23.7ZM6.92387 21.9182L7.78161 14.5475C7.81272 14.2806 8.0525 14.0793 8.33951 14.0793H8.93325V15.0155C8.93325 15.3469 9.22042 15.6155 9.57461 15.6155C9.9288 15.6155 10.216 15.3469 10.216 15.0155V11.7686C10.216 10.6556 11.1839 9.75 12.3737 9.75C13.5635 9.75 14.5313 10.6555 14.5313 11.7686V12.8794H11.7571C11.403 12.8794 11.1158 13.148 11.1158 13.4794C11.1158 13.8107 11.403 14.0794 11.7571 14.0794H14.5313V15.0155C14.5313 15.3469 14.8185 15.6155 15.1727 15.6155C15.5269 15.6155 15.8141 15.3469 15.8141 15.0155V14.0794H16.4078C16.6948 14.0794 16.9346 14.2807 16.9657 14.5475L17.8234 21.9182C17.8595 22.2284 17.6012 22.5 17.2655 22.5H7.48177C7.14763 22.5 6.88772 22.2296 6.92387 21.9182Z" fill="#007FFC"/>
    </symbol>
    <symbol id="Logo_2" width="200" height="35" viewBox="0 0 200 35" fill="none" xmlns="http://www.w3.org/2000/svg">
        <path d="M48.132 30.5C47.712 30.5 47.362 30.36 47.082 30.08C46.8253 29.8 46.697 29.4617 46.697 29.065V7.4C46.697 7.00333 46.8253 6.67667 47.082 6.42C47.362 6.14 47.7003 6 48.097 6H60.382C60.7787 6 61.117 6.12833 61.397 6.385C61.677 6.64167 61.817 6.96833 61.817 7.365C61.817 7.73833 61.677 8.05333 61.397 8.31C61.117 8.56667 60.7787 8.695 60.382 8.695H49.357L49.567 8.415V16.99L49.392 16.605H58.807C59.2037 16.605 59.542 16.745 59.822 17.025C60.102 17.2817 60.242 17.6083 60.242 18.005C60.242 18.355 60.102 18.67 59.822 18.95C59.542 19.2067 59.2037 19.335 58.807 19.335H49.322L49.567 19.02V29.065C49.567 29.4617 49.427 29.8 49.147 30.08C48.867 30.36 48.5287 30.5 48.132 30.5ZM67.0894 30.5C66.6928 30.5 66.3544 30.36 66.0744 30.08C65.8178 29.8 65.6894 29.4617 65.6894 29.065V13.805C65.6894 13.4083 65.8178 13.0817 66.0744 12.825C66.3544 12.545 66.6928 12.405 67.0894 12.405C67.5094 12.405 67.8478 12.545 68.1044 12.825C68.3611 13.0817 68.4894 13.4083 68.4894 13.805V18.425L68.0694 17.69C68.2094 16.9667 68.4544 16.2667 68.8044 15.59C69.1778 14.89 69.6444 14.2717 70.2044 13.735C70.7644 13.175 71.4061 12.7433 72.1294 12.44C72.8528 12.1133 73.6461 11.95 74.5094 11.95C75.0228 11.95 75.4894 12.0783 75.9094 12.335C76.3528 12.5683 76.5744 12.9067 76.5744 13.35C76.5744 13.84 76.4461 14.2017 76.1894 14.435C75.9328 14.6683 75.6411 14.785 75.3144 14.785C75.0111 14.785 74.7194 14.7267 74.4394 14.61C74.1594 14.47 73.8094 14.4 73.3894 14.4C72.8061 14.4 72.2228 14.5633 71.6394 14.89C71.0794 15.1933 70.5544 15.6367 70.0644 16.22C69.5978 16.8033 69.2128 17.4683 68.9094 18.215C68.6294 18.9383 68.4894 19.72 68.4894 20.56V29.065C68.4894 29.4617 68.3494 29.8 68.0694 30.08C67.8128 30.36 67.4861 30.5 67.0894 30.5ZM87.3161 30.85C85.4495 30.85 83.8161 30.4533 82.4161 29.66C81.0161 28.8667 79.9195 27.7817 79.1261 26.405C78.3561 25.005 77.9711 23.395 77.9711 21.575C77.9711 19.545 78.3678 17.8183 79.1611 16.395C79.9778 14.9483 81.0278 13.8517 82.3111 13.105C83.6178 12.335 84.9945 11.95 86.4411 11.95C87.5145 11.95 88.5528 12.1483 89.5561 12.545C90.5595 12.9417 91.4461 13.525 92.2161 14.295C92.9861 15.0417 93.6045 15.9517 94.0711 17.025C94.5378 18.075 94.7828 19.2533 94.8061 20.56C94.8061 20.9333 94.6661 21.2483 94.3861 21.505C94.1061 21.7617 93.7795 21.89 93.4061 21.89H79.5811L78.9511 19.475H92.4261L91.8661 19.965V19.195C91.7728 18.2383 91.4461 17.4217 90.8861 16.745C90.3495 16.045 89.6845 15.5083 88.8911 15.135C88.1211 14.7617 87.3045 14.575 86.4411 14.575C85.7411 14.575 85.0411 14.7033 84.3411 14.96C83.6645 15.1933 83.0461 15.59 82.4861 16.15C81.9495 16.6867 81.5061 17.3867 81.1561 18.25C80.8295 19.1133 80.6661 20.1517 80.6661 21.365C80.6661 22.7183 80.9345 23.9083 81.4711 24.935C82.0311 25.9617 82.8011 26.7783 83.7811 27.385C84.7611 27.9683 85.9045 28.26 87.2111 28.26C88.0278 28.26 88.7395 28.155 89.3461 27.945C89.9528 27.735 90.4778 27.4783 90.9211 27.175C91.3645 26.8483 91.7378 26.5217 92.0411 26.195C92.3445 25.985 92.6361 25.88 92.9161 25.88C93.2661 25.88 93.5461 25.9967 93.7561 26.23C93.9895 26.4633 94.1061 26.7433 94.1061 27.07C94.1061 27.4667 93.9195 27.8167 93.5461 28.12C92.8928 28.8433 92.0061 29.485 90.8861 30.045C89.7661 30.5817 88.5761 30.85 87.3161 30.85ZM107.38 30.85C105.513 30.85 103.88 30.4533 102.48 29.66C101.08 28.8667 99.983 27.7817 99.1896 26.405C98.4196 25.005 98.0346 23.395 98.0346 21.575C98.0346 19.545 98.4313 17.8183 99.2246 16.395C100.041 14.9483 101.091 13.8517 102.375 13.105C103.681 12.335 105.058 11.95 106.505 11.95C107.578 11.95 108.616 12.1483 109.62 12.545C110.623 12.9417 111.51 13.525 112.28 14.295C113.05 15.0417 113.668 15.9517 114.135 17.025C114.601 18.075 114.846 19.2533 114.87 20.56C114.87 20.9333 114.73 21.2483 114.45 21.505C114.17 21.7617 113.843 21.89 113.47 21.89H99.6446L99.0146 19.475H112.49L111.93 19.965V19.195C111.836 18.2383 111.51 17.4217 110.95 16.745C110.413 16.045 109.748 15.5083 108.955 15.135C108.185 14.7617 107.368 14.575 106.505 14.575C105.805 14.575 105.105 14.7033 104.405 14.96C103.728 15.1933 103.11 15.59 102.55 16.15C102.013 16.6867 101.57 17.3867 101.22 18.25C100.893 19.1133 100.73 20.1517 100.73 21.365C100.73 22.7183 100.998 23.9083 101.535 24.935C102.095 25.9617 102.865 26.7783 103.845 27.385C104.825 27.9683 105.968 28.26 107.275 28.26C108.091 28.26 108.803 28.155 109.41 27.945C110.016 27.735 110.541 27.4783 110.985 27.175C111.428 26.8483 111.801 26.5217 112.105 26.195C112.408 25.985 112.7 25.88 112.98 25.88C113.33 25.88 113.61 25.9967 113.82 26.23C114.053 26.4633 114.17 26.7433 114.17 27.07C114.17 27.4667 113.983 27.8167 113.61 28.12C112.956 28.8433 112.07 29.485 110.95 30.045C109.83 30.5817 108.64 30.85 107.38 30.85ZM127.828 12.125C129.368 12.125 130.581 12.4633 131.468 13.14C132.378 13.7933 133.02 14.68 133.393 15.8C133.79 16.8967 133.988 18.1217 133.988 19.475V29.065C133.988 29.4617 133.848 29.8 133.568 30.08C133.311 30.36 132.985 30.5 132.588 30.5C132.191 30.5 131.853 30.36 131.573 30.08C131.316 29.8 131.188 29.4617 131.188 29.065V19.475C131.188 18.5883 131.06 17.795 130.803 17.095C130.546 16.3717 130.115 15.8 129.508 15.38C128.925 14.9367 128.12 14.715 127.093 14.715C126.136 14.715 125.261 14.9367 124.468 15.38C123.675 15.8 123.045 16.3717 122.578 17.095C122.111 17.795 121.878 18.5883 121.878 19.475V29.065C121.878 29.4617 121.738 29.8 121.458 30.08C121.201 30.36 120.875 30.5 120.478 30.5C120.081 30.5 119.743 30.36 119.463 30.08C119.206 29.8 119.078 29.4617 119.078 29.065V6C119.078 5.60333 119.206 5.27667 119.463 5.02C119.743 4.74 120.081 4.6 120.478 4.6C120.898 4.6 121.236 4.74 121.493 5.02C121.75 5.27667 121.878 5.60333 121.878 6V16.465L121.178 17.235C121.295 16.6283 121.551 16.0217 121.948 15.415C122.345 14.785 122.846 14.225 123.453 13.735C124.06 13.245 124.736 12.86 125.483 12.58C126.23 12.2767 127.011 12.125 127.828 12.125ZM154.086 12.23C154.482 12.23 154.809 12.37 155.066 12.65C155.346 12.9067 155.486 13.2333 155.486 13.63V29.065C155.486 29.4617 155.346 29.8 155.066 30.08C154.809 30.36 154.482 30.5 154.086 30.5C153.666 30.5 153.327 30.36 153.071 30.08C152.814 29.8 152.686 29.4617 152.686 29.065V25.74L153.351 25.67C153.351 26.1833 153.176 26.7433 152.826 27.35C152.476 27.9567 151.997 28.5283 151.391 29.065C150.784 29.5783 150.061 30.01 149.221 30.36C148.404 30.6867 147.517 30.85 146.561 30.85C144.974 30.85 143.551 30.4417 142.291 29.625C141.031 28.785 140.027 27.6533 139.281 26.23C138.557 24.8067 138.196 23.185 138.196 21.365C138.196 19.5217 138.557 17.9 139.281 16.5C140.027 15.0767 141.031 13.9683 142.291 13.175C143.551 12.3583 144.951 11.95 146.491 11.95C147.494 11.95 148.427 12.1133 149.291 12.44C150.154 12.7667 150.901 13.21 151.531 13.77C152.184 14.33 152.686 14.9483 153.036 15.625C153.409 16.3017 153.596 16.9783 153.596 17.655L152.686 17.445V13.63C152.686 13.2333 152.814 12.9067 153.071 12.65C153.327 12.37 153.666 12.23 154.086 12.23ZM146.876 28.26C148.042 28.26 149.069 27.9567 149.956 27.35C150.866 26.7433 151.566 25.9267 152.056 24.9C152.569 23.85 152.826 22.6717 152.826 21.365C152.826 20.0817 152.569 18.9267 152.056 17.9C151.566 16.85 150.866 16.0333 149.956 15.45C149.069 14.8433 148.042 14.54 146.876 14.54C145.732 14.54 144.706 14.8317 143.796 15.415C142.909 15.9983 142.209 16.8033 141.696 17.83C141.182 18.8567 140.926 20.035 140.926 21.365C140.926 22.6717 141.171 23.85 141.661 24.9C142.174 25.9267 142.874 26.7433 143.761 27.35C144.671 27.9567 145.709 28.26 146.876 28.26ZM169.67 11.95C171.256 11.95 172.505 12.2767 173.415 12.93C174.325 13.5833 174.966 14.4583 175.34 15.555C175.736 16.6517 175.935 17.8767 175.935 19.23V29.065C175.935 29.4617 175.795 29.8 175.515 30.08C175.258 30.36 174.931 30.5 174.535 30.5C174.138 30.5 173.8 30.36 173.52 30.08C173.263 29.8 173.135 29.4617 173.135 29.065V19.3C173.135 18.4133 172.995 17.62 172.715 16.92C172.458 16.1967 172.015 15.625 171.385 15.205C170.778 14.7617 169.938 14.54 168.865 14.54C167.885 14.54 166.986 14.7617 166.17 15.205C165.353 15.625 164.7 16.1967 164.21 16.92C163.72 17.62 163.475 18.4133 163.475 19.3V29.065C163.475 29.4617 163.335 29.8 163.055 30.08C162.798 30.36 162.471 30.5 162.075 30.5C161.678 30.5 161.34 30.36 161.06 30.08C160.803 29.8 160.675 29.4617 160.675 29.065V13.805C160.675 13.4083 160.803 13.0817 161.06 12.825C161.34 12.545 161.678 12.405 162.075 12.405C162.495 12.405 162.833 12.545 163.09 12.825C163.346 13.0817 163.475 13.4083 163.475 13.805V16.29L162.775 17.06C162.891 16.4533 163.16 15.8467 163.58 15.24C164 14.61 164.525 14.05 165.155 13.56C165.785 13.07 166.485 12.685 167.255 12.405C168.025 12.1017 168.83 11.95 169.67 11.95ZM196.024 4.6C196.421 4.6 196.748 4.74 197.004 5.02C197.284 5.27667 197.424 5.60333 197.424 6V29.065C197.424 29.4617 197.284 29.8 197.004 30.08C196.748 30.36 196.421 30.5 196.024 30.5C195.604 30.5 195.266 30.36 195.009 30.08C194.753 29.8 194.624 29.4617 194.624 29.065V25.74L195.289 25.495C195.289 26.055 195.114 26.65 194.764 27.28C194.414 27.8867 193.936 28.4583 193.329 28.995C192.723 29.5317 191.999 29.975 191.159 30.325C190.343 30.675 189.456 30.85 188.499 30.85C186.936 30.85 185.513 30.4417 184.229 29.625C182.969 28.8083 181.966 27.6883 181.219 26.265C180.496 24.8417 180.134 23.22 180.134 21.4C180.134 19.5567 180.496 17.9233 181.219 16.5C181.966 15.0767 182.969 13.9683 184.229 13.175C185.489 12.3583 186.889 11.95 188.429 11.95C189.409 11.95 190.331 12.1133 191.194 12.44C192.058 12.7667 192.804 13.21 193.434 13.77C194.088 14.33 194.601 14.9483 194.974 15.625C195.348 16.3017 195.534 16.9783 195.534 17.655L194.624 17.445V6C194.624 5.60333 194.753 5.27667 195.009 5.02C195.266 4.74 195.604 4.6 196.024 4.6ZM188.814 28.26C189.981 28.26 191.008 27.9683 191.894 27.385C192.804 26.7783 193.504 25.9617 193.994 24.935C194.508 23.885 194.764 22.7067 194.764 21.4C194.764 20.07 194.508 18.8917 193.994 17.865C193.504 16.8383 192.804 16.0333 191.894 15.45C191.008 14.8433 189.981 14.54 188.814 14.54C187.671 14.54 186.644 14.8433 185.734 15.45C184.848 16.0333 184.148 16.8383 183.634 17.865C183.121 18.8917 182.864 20.07 182.864 21.4C182.864 22.6833 183.121 23.85 183.634 24.9C184.148 25.9267 184.848 26.7433 185.734 27.35C186.644 27.9567 187.671 28.26 188.814 28.26Z" fill="white"/>
        <path d="M24.1011 17.5C24.1011 17.0945 24.3801 16.7398 24.7776 16.6478C27.7445 15.9559 29.8158 13.3427 29.8158 10.2871C29.8158 6.68162 26.89 3.75 23.2975 3.75C20.2319 3.75 17.5476 5.93303 16.9194 8.93851L24.1011 17.5ZM24.1011 17.5C24.1011 17.9052 24.3798 18.2598 24.7769 18.3521L24.1011 17.5ZM16.9194 26.0615C17.5476 29.067 20.2319 31.25 23.2975 31.25C26.89 31.25 29.8158 28.3184 29.8158 24.7129C29.8158 21.6573 27.7445 19.0441 24.7776 18.3522L16.9194 26.0615ZM16.9194 26.0615C16.8351 25.6567 16.4785 25.3654 16.0639 25.3654C15.6494 25.3654 15.2928 25.6567 15.2085 26.0615C14.5801 29.067 11.8957 31.25 8.83015 31.25C5.23764 31.25 2.31186 28.3184 2.31186 24.7129C2.31186 21.6573 4.38316 19.0441 7.35008 18.3522C7.74759 18.2602 8.0266 17.9055 8.0266 17.5C8.0266 17.0948 7.74793 16.7402 7.35082 16.6479L16.9194 26.0615ZM15.2085 8.93851C14.5801 5.93301 11.8957 3.75 8.83015 3.75C5.23764 3.75 2.31186 6.68162 2.31186 10.2871C2.31186 13.3427 4.38316 15.9559 7.35008 16.6478L15.2085 8.93851ZM15.2085 8.93851C15.2928 9.34326 15.6494 9.63464 16.0639 9.63464C16.4783 9.63464 16.8349 9.34341 16.9193 8.93882L15.2085 8.93851ZM8.83015 33C11.8854 33 14.636 31.2954 16.0639 28.7195C17.4916 31.2954 20.2421 33 23.2975 33C27.8572 33 31.5638 29.2816 31.5638 24.7129C31.5638 21.6523 29.9198 18.9359 27.3694 17.5C29.9198 16.0641 31.5638 13.3477 31.5638 10.2871C31.5638 5.7184 27.8572 2 23.2975 2C20.2421 2 17.4916 3.70458 16.0639 6.2805C14.636 3.70458 11.8854 2 8.83015 2C4.27048 2 0.563843 5.7184 0.563843 10.2871C0.563843 13.3477 2.20788 16.0641 4.75833 17.5C2.20788 18.9359 0.563843 21.6523 0.563843 24.7129C0.563843 29.2816 4.27048 33 8.83015 33Z" fill="#3DB370" stroke="#3DB370"/>
    </symbol>
</svg>