<svg width="40" height="36" viewBox="0 0 40 36" fill="none" xmlns="http://www.w3.org/2000/svg">
<path d="M37.418 20.325V33C37.418 34.6542 35.9795 36 34.2113 36H5.99165C4.22343 36 2.78487 34.6542 2.78487 33V20.325C2.78487 19.9937 3.07204 19.725 3.42623 19.725C3.78042 19.725 4.06758 19.9937 4.06758 20.325V33C4.06758 33.9925 4.93069 34.8 5.99165 34.8H12.9664V24.675C12.9664 23.0208 14.4049 21.675 16.1732 21.675H24.0297C25.798 21.675 27.2365 23.0208 27.2365 24.675V32.4C27.2365 32.7313 26.9494 33 26.5952 33C26.241 33 25.9538 32.7313 25.9538 32.4V24.675C25.9538 23.6825 25.0906 22.875 24.0297 22.875H16.1732C15.1123 22.875 14.2491 23.6825 14.2491 24.675V34.8H19.4601V25.35C19.4601 25.0187 19.7473 24.75 20.1014 24.75C20.4556 24.75 20.7428 25.0187 20.7428 25.35V34.8H34.2113C35.2721 34.8 36.1353 33.9925 36.1353 33V20.325C36.1353 19.9937 36.4225 19.725 36.7767 19.725C37.1309 19.725 37.418 19.9936 37.418 20.325ZM5.02962 9.6C5.02962 9.93135 5.31678 10.2 5.67097 10.2C40.5661 10.2 38.836 10.2584 39.0909 10.0754C39.2242 9.9795 39.3113 9.84112 39.3352 9.68303C39.3709 9.4419 39.6011 10.0349 35.1204 0.361425C35.0186 0.141975 34.7875 0 34.5318 0H5.67089C5.41531 0 5.18402 0.14205 5.08245 0.361425L0.913642 9.36143C0.839966 9.52058 0.86073 9.26798 0.86073 13.3224C0.86538 16.0513 3.23895 18.2714 6.15191 18.2714C8.15446 18.2714 9.90207 17.2222 10.8004 15.6797C12.8067 19.129 18.0914 19.1328 20.1014 15.682C22.1098 19.13 27.3921 19.1308 29.401 15.682C30.2987 17.2232 32.0464 18.2714 34.0508 18.2714C36.9684 18.2714 39.342 16.0509 39.342 13.3214C39.342 12.9901 39.0548 12.7214 38.7006 12.7214C38.3465 12.7214 38.0593 12.9901 38.0593 13.3214C38.0593 15.3892 36.2611 17.0714 34.0508 17.0714C31.8406 17.0714 30.0424 15.3892 30.0424 13.3214C30.0424 12.9901 29.7552 12.7214 29.401 12.7214C29.0468 12.7214 28.7597 12.9901 28.7597 13.3214C28.7597 15.3892 26.9615 17.0714 24.7512 17.0714C22.5409 17.0714 20.7427 15.3892 20.7427 13.3214C20.7427 12.9901 20.4556 12.7214 20.1014 12.7214C19.7472 12.7214 19.46 12.9901 19.46 13.3214C19.46 15.3892 17.6618 17.0714 15.4515 17.0714C13.2904 17.0714 11.4431 15.4466 11.4431 13.2914C11.4431 12.9601 11.1559 12.6914 10.8017 12.6914C10.4475 12.6914 10.1604 12.9601 10.1604 13.2914C10.1604 15.4284 8.32457 17.0714 6.15191 17.0714C3.94516 17.0714 2.14689 15.3887 2.14344 13.3214V9.72435L6.09202 1.2H34.1109L37.7238 9H5.67097C5.3167 9 5.02962 9.26858 5.02962 9.6Z" fill="#007FFC"/>
</svg>
